<svg width="420" height="120" viewBox="0 0 420 120" fill="none" xmlns="http://www.w3.org/2000/svg">
  <defs>
    <linearGradient id="lokanWordmarkGradient" x1="40" y1="24" x2="360" y2="112" gradientUnits="userSpaceOnUse">
      <stop offset="0" stop-color="#38BDF8" />
      <stop offset="1" stop-color="#34D399" />
    </linearGradient>
  </defs>
  <path d="M74.8 87H54V35H74.8V87ZM117.516 87H96.7158L77.9558 35H98.7558L107.836 63.24L116.676 35H136.116L117.516 87ZM177.905 87H158.625V75.32H146.385V87H127.225V35H177.905V49.48H146.385V60.68H170.185V73.76H146.385V75.32H177.905V87ZM213.884 88.04C207.204 88.04 201.604 86.64 197.084 83.84C192.564 81.04 189.124 77.12 186.764 72.08C184.404 67.04 183.224 61.24 183.224 54.68C183.224 48.12 184.404 42.32 186.764 37.28C189.124 32.24 192.564 28.32 197.084 25.52C201.604 22.72 207.204 21.32 213.884 21.32C220.484 21.32 225.964 22.72 230.324 25.52C234.764 28.24 238.084 32.08 240.284 37.04C242.564 41.92 243.704 47.68 243.704 54.32C243.704 60.96 242.564 66.72 240.284 71.6C238.084 76.48 234.764 80.32 230.324 83.12C225.964 85.84 220.484 87.2 213.884 87.2C213.884 87.2 213.884 88.04 213.884 88.04ZM213.884 72.72C216.924 72.72 219.324 71.8 221.084 69.96C222.844 68.12 223.724 65.48 223.724 62.04V47.72C223.724 44.2 222.804 41.56 220.964 39.8C219.204 38.04 216.764 37.16 213.644 37.16C210.604 37.16 208.204 38.04 206.444 39.8C204.684 41.56 203.804 44.2 203.804 47.72V62.04C203.804 65.48 204.684 68.12 206.444 69.96C208.204 71.8 210.604 72.72 213.644 72.72C213.644 72.72 213.884 72.72 213.884 72.72ZM285.123 87L266.243 65.24V87H247.403V35H266.243V56.52L284.803 35H305.723L282.883 61.28L306.323 87H285.123ZM340.819 88.04C334.619 88.04 329.299 86.68 324.859 83.96C320.499 81.16 317.199 77.32 314.959 72.44C312.799 67.48 311.719 61.64 311.719 54.92C311.719 48.12 312.799 42.24 314.959 37.28C317.199 32.32 320.499 28.48 324.859 25.76C329.299 22.96 334.619 21.56 340.819 21.56C344.699 21.56 348.179 22.12 351.259 23.24C354.419 24.36 357.119 26.04 359.359 28.28C361.679 30.44 363.359 33.2 364.399 36.56C365.519 39.84 366.079 43.76 366.079 48.32H346.439C346.439 45.12 345.679 42.92 344.159 41.72C342.719 40.44 340.559 39.8 337.679 39.8C334.399 39.8 331.959 40.8 330.359 42.8C328.839 44.72 328.079 47.52 328.079 51.2V58.52C328.079 62.2 328.839 65 330.359 66.92C331.959 68.84 334.399 69.8 337.679 69.8C340.799 69.8 343.039 69.16 344.399 67.88C345.759 66.6 346.439 64.68 346.439 62.12H366.079C366.079 67.08 365.479 71.32 364.279 74.84C363.159 78.36 361.439 81.32 359.119 83.72C356.879 86.04 354.099 87.64 350.779 88.52C347.459 89.4 344.139 89.84 340.819 89.84C340.819 89.84 340.819 88.04 340.819 88.04Z" fill="white" fill-opacity="0.92"/>
</svg>
